<svg width="48" height="48" viewBox="0 0 48 48" fill="none" xmlns="http://www.w3.org/2000/svg">
<rect width="48" height="48" rx="16" fill="white"/>
<path d="M33.9995 25.2851C33.9808 25.966 33.4051 26.5 32.724 26.5H30.5625V27.125C30.5625 27.9791 30.3718 28.7884 30.0312 29.5135L32.3839 31.8661C32.872 32.3543 32.872 33.1457 32.3839 33.6339C31.8957 34.1221 31.1042 34.122 30.6161 33.6339L28.4779 31.4958C27.5111 32.2799 26.2793 32.75 24.9375 32.75V23.2187C24.9375 22.9599 24.7276 22.75 24.4687 22.75H23.5312C23.2724 22.75 23.0625 22.9599 23.0625 23.2187V32.75C21.7206 32.75 20.4888 32.2799 19.522 31.4958L17.3839 33.6339C16.8957 34.1221 16.1042 34.122 15.6161 33.6339C15.1279 33.1457 15.1279 32.3543 15.6161 31.8661L17.9687 29.5135C17.6282 28.7884 17.4375 27.9791 17.4375 27.125V26.5H15.276C14.5949 26.5 14.0192 25.966 14.0005 25.2851C13.9811 24.5787 14.5479 24 15.25 24H17.4375V21.7053L15.6161 19.8839C15.1279 19.3957 15.1279 18.6043 15.6161 18.1161C16.1043 17.6279 16.8957 17.6279 17.3839 18.1161L19.5177 20.25H28.4822L30.616 18.1161C31.1042 17.628 31.8956 17.628 32.3838 18.1161C32.872 18.6043 32.872 19.3957 32.3838 19.8839L30.5625 21.7053V24H32.75C33.452 24 34.0189 24.5787 33.9995 25.2851ZM24.039 14C21.6228 14 19.664 15.9587 19.664 18.375H28.414C28.414 15.9587 26.4553 14 24.039 14Z" fill="#C92A2A"/>
<path d="M16 38.5L24 40L32.5 38.5L40.5 25.5L32 11.5L24 9.5L16 11.5L7.5 25.5L16 38.5Z" stroke="black" stroke-linecap="round" stroke-linejoin="round" stroke-dasharray="6 6"/>
</svg>
